<svg width="16" height="16" viewBox="0 0 16 16" fill="none" xmlns="http://www.w3.org/2000/svg">
<path d="M13.0328 7.33147C12.7295 6.64875 12.2885 6.03597 11.7375 5.53147L11.2828 5.11428C11.2674 5.10051 11.2488 5.09073 11.2287 5.08581C11.2086 5.08089 11.1876 5.08099 11.1675 5.08608C11.1475 5.09117 11.129 5.1011 11.1137 5.11501C11.0984 5.12892 11.0867 5.14638 11.0797 5.16585L10.8766 5.74866C10.75 6.11428 10.5172 6.48772 10.1875 6.85491C10.1656 6.87835 10.1406 6.8846 10.1234 6.88616C10.1063 6.88772 10.0797 6.8846 10.0562 6.86272C10.0344 6.84397 10.0234 6.81585 10.025 6.78772C10.0828 5.8471 9.80156 4.78616 9.18594 3.63147C8.67656 2.6721 7.96875 1.92366 7.08437 1.40178L6.43906 1.0221C6.35469 0.972098 6.24688 1.03772 6.25156 1.13616L6.28594 1.88616C6.30937 2.39866 6.25 2.85179 6.10938 3.22835C5.9375 3.68929 5.69062 4.11741 5.375 4.50179C5.15535 4.76891 4.90639 5.01053 4.63281 5.2221C3.97391 5.72861 3.43815 6.37762 3.06562 7.12054C2.69402 7.86993 2.50045 8.695 2.5 9.53147C2.5 10.269 2.64531 10.983 2.93281 11.6565C3.21042 12.3049 3.61103 12.8933 4.1125 13.3893C4.61875 13.8893 5.20625 14.283 5.86094 14.5565C6.53906 14.8408 7.25781 14.9846 8 14.9846C8.74219 14.9846 9.46094 14.8408 10.1391 14.558C10.7921 14.2862 11.386 13.8898 11.8875 13.3908C12.3938 12.8908 12.7906 12.3065 13.0672 11.658C13.3543 10.9864 13.5015 10.2634 13.5 9.53303C13.5 8.77053 13.3438 8.02991 13.0328 7.33147ZM11.1406 12.633C10.3016 13.4643 9.1875 13.9205 8 13.9205C6.8125 13.9205 5.69844 13.4643 4.85938 12.633C4.02344 11.8033 3.5625 10.7033 3.5625 9.53303C3.5625 8.85335 3.71563 8.20179 4.01719 7.59554C4.31094 7.00335 4.74844 6.47366 5.27969 6.06585C5.6185 5.80678 5.9258 5.50891 6.19531 5.17835C6.58594 4.70179 6.89219 4.17053 7.10469 3.60022C7.19185 3.36497 7.25519 3.12156 7.29375 2.87366C7.67031 3.22054 7.98594 3.63928 8.25 4.12991C8.77187 5.10803 9.0125 5.97835 8.96562 6.71897C8.95443 6.8934 8.98291 7.06811 9.04895 7.22994C9.11498 7.39178 9.21684 7.53654 9.34688 7.65335C9.45956 7.75514 9.59135 7.83352 9.73458 7.88395C9.87782 7.93438 10.0296 7.95584 10.1812 7.9471C10.4891 7.93147 10.7719 7.79554 10.9781 7.56585C11.1859 7.33304 11.3656 7.09554 11.5156 6.85335C11.7344 7.13304 11.9172 7.43772 12.0625 7.76585C12.3109 8.32522 12.4375 8.92053 12.4375 9.53303C12.4375 10.7033 11.9766 11.8049 11.1406 12.633Z" fill="white"/>
</svg>
